#!OML:ASF H:\Dans Jumps\Project 1\Capture day 1\Session 1\subject.ASF
:FULLY-SPECIFIED
:DEGREES
665
root 0.410706 17.7138 11.03 6.33612 -0.623453 -1.40841
lowerback -3.707 0.168286 -0.123325
upperback 3.03647 0.17989 1.09498
thorax 5.21747 0.0624542 1.2181
lowerneck -12.6889 0.600739 -1.57043
upperneck 31.8432 1.1175 0.569539
head 12.6614 0.381259 0.653846
rclavicle -1.19271e-015 -1.68967e-015
rhumerus -26.1244 -21.3329 -78.8158
rradius 22.4073
rwrist 38.0725
rhand -16.9657 -26.2793
rfingers 7.12502
rthumb 9.26841 -56.0556
lclavicle -1.19271e-015 -1.68967e-015
lhumerus -21.6882 5.71826 85.0691
lradius 15.8195
lwrist -1.4213
lhand -24.2378 -6.38997
lfingers 7.12502
lthumb 2.24767 23.5779
rfemur -13.4029 -1.74742 20.2453
rtibia 20.6896
rfoot -13.4001 0.790443
rtoes 13.5519
lfemur -10.8759 6.39773 -17.4356
ltibia 17.2792
lfoot -10.0396 4.91225
ltoes -8.03193
666
root 0.411568 17.7139 11.0321 6.35088 -0.623723 -1.41185
lowerback -3.70089 0.172093 -0.125506
upperback 3.04062 0.185114 1.09479
thorax 5.2182 0.0649509 1.21955
lowerneck -12.6904 0.596872 -1.57194
upperneck 31.9447 1.11071 0.576915
head 12.7039 0.378211 0.656801
rclavicle -3.72721e-016 -6.4605e-015
rhumerus -26.2088 -21.4392 -78.6851
rradius 22.389
rwrist 38.1062
rhand -16.9703 -26.29
rfingers 7.12502
rthumb 9.26404 -56.0664
lclavicle -3.72721e-016 -6.4605e-015
lhumerus -21.7844 5.89733 84.9522
lradius 15.7786
lwrist -1.57817
lhand -24.2402 -6.39857
lfingers 7.12502
lthumb 2.24536 23.5694
rfemur -13.4118 -1.7454 20.2465
rtibia 20.6887
rfoot -13.4034 0.789025
rtoes 13.5532
lfemur -10.8923 6.40534 -17.4364
ltibia 17.2926
lfoot -10.0495 4.91251
ltoes -8.03692
667
root 0.412492 17.7139 11.0341 6.36402 -0.623981 -1.41657
lowerback -3.69444 0.175074 -0.125044
upperback 3.04949 0.189047 1.09432
thorax 5.22372 0.0668773 1.21915
lowerneck -12.7007 0.59631 -1.57639
upperneck 32.0401 1.10823 0.588614
head 12.7458 0.377306 0.662565
rclavicle 1.86361e-015 -2.78299e-015
rhumerus -26.2735 -21.5329 -78.5684
rradius 22.376
rwrist 38.1355
rhand -16.9671 -26.3028
rfingers 7.12502
rthumb 9.26709 -56.0792
lclavicle 1.86361e-015 -2.78299e-015
lhumerus -21.8708 6.07011 84.8422
lradius 15.7447
lwrist -1.72476
lhand -24.2727 -6.43466
lfingers 7.12502
lthumb 2.21402 23.5336
rfemur -13.4198 -1.74192 20.2487
rtibia 20.689
rfoot -13.4058 0.786946
rtoes 13.5627
lfemur -10.9099 6.41159 -17.4357
ltibia 17.3102
lfoot -10.0589 4.91345
ltoes -8.04649
668
root 0.41343 17.7137 11.0359 6.37693 -0.623818 -1.42583
lowerback -3.68781 0.177063 -0.119703
upperback 3.06233 0.191261 1.09518
thorax 5.23333 0.0680769 1.21726
lowerneck -12.7237 0.600329 -1.57751
upperneck 32.1337 1.11285 0.597007
head 12.7897 0.379496 0.667582
rclavicle 1.98785e-015 6.4605e-015
rhumerus -26.3154 -21.6169 -78.4641
rradius 22.3623
rwrist 38.167
rhand -16.9587 -26.3177
rfingers 7.12502
rthumb 9.27524 -56.0937
lclavicle 1.98785e-015 6.4605e-015
lhumerus -21.9393 6.21572 84.7446
lradius 15.7085
lwrist -1.83929
lhand -24.3192 -6.47855
lfingers 7.12502
lthumb 2.16906 23.4902
rfemur -13.429 -1.73446 20.256
rtibia 20.69
rfoot -13.4067 0.780111
rtoes 13.5682
lfemur -10.9308 6.41541 -17.43
ltibia 17.332
lfoot -10.0676 4.917
ltoes -8.06707
669
root 0.414523 17.7135 11.0375 6.38884 -0.623804 -1.43542
lowerback -3.68193 0.178343 -0.111492
upperback 3.07808 0.192339 1.0957
thorax 5.24647 0.0688052 1.21335
lowerneck -12.7434 0.605604 -1.58362
upperneck 32.2192 1.11929 0.609116
head 12.8295 0.382431 0.675092
rclavicle 1.59028e-015 -7.25564e-015
rhumerus -26.3412 -21.6903 -78.3705
rradius 22.3512
rwrist 38.1976
rhand -16.9405 -26.3338
rfingers 7.12502
rthumb 9.29274 -56.109
lclavicle 1.59028e-015 -7.25564e-015
lhumerus -21.9917 6.34388 84.6563
lradius 15.6722
lwrist -1.92892
lhand -24.34 -6.49247
lfingers 7.12502
lthumb 2.14898 23.4765
rfemur -13.438 -1.73046 20.2635
rtibia 20.6914
rfoot -13.407 0.775212
rtoes 13.5649
lfemur -10.9527 6.41991 -17.4247
ltibia 17.3573
lfoot -10.077 4.91996
ltoes -8.09325
670
root 0.415702 17.7133 11.039 6.4004 -0.624126 -1.44517
lowerback -3.67422 0.17907 -0.101986
upperback 3.09361 0.192613 1.09614
thorax 5.25834 0.0691921 1.20855
lowerneck -12.7578 0.61081 -1.58873
upperneck 32.2983 1.12569 0.619704
head 12.8656 0.385315 0.681762
rclavicle 1.54058e-015 -9.0447e-015
rhumerus -26.3589 -21.749 -78.285
rradius 22.3441
rwrist 38.2239
rhand -16.9191 -26.3508
rfingers 7.12502
rthumb 9.31345 -56.1251
lclavicle 1.54058e-015 -9.0447e-015
lhumerus -22.0359 6.46644 84.5724
lradius 15.638
lwrist -2.00261
lhand -24.3467 -6.49901
lfingers 7.12502
lthumb 2.14254 23.47
rfemur -13.448 -1.72535 20.2712
rtibia 20.6937
rfoot -13.407 0.767356
rtoes 13.5528
lfemur -10.9755 6.42339 -17.4196
ltibia 17.3842
lfoot -10.0858 4.92484
ltoes -8.12175
671
root 0.416999 17.713 11.0404 6.41097 -0.625483 -1.45677
lowerback -3.66425 0.179581 -0.0902319
upperback 3.1081 0.192426 1.09777
thorax 5.26785 0.0694244 1.20366
lowerneck -12.761 0.613146 -1.59386
upperneck 32.3694 1.12803 0.628834
head 12.8961 0.386296 0.687153
rclavicle -3.60297e-015 -1.05356e-014
rhumerus -26.3717 -21.7913 -78.2053
rradius 22.3433
rwrist 38.241
rhand -16.9034 -26.3692
rfingers 7.12502
rthumb 9.32858 -56.1428
lclavicle -3.60297e-015 -1.05356e-014
lhumerus -22.0773 6.58074 84.4952
lradius 15.6043
lwrist -2.07341
lhand -24.3208 -6.48483
lfingers 7.12502
lthumb 2.16758 23.4839
rfemur -13.4581 -1.7205 20.2806
rtibia 20.6971
rfoot -13.407 0.759842
rtoes 13.5386
lfemur -10.9972 6.42667 -17.4128
ltibia 17.4107
lfoot -10.0949 4.93061
ltoes -8.14271
672
root 0.418422 17.7128 11.0417 6.42231 -0.627872 -1.4654
lowerback -3.65183 0.179969 -0.0804004
upperback 3.11893 0.192264 1.0988
thorax 5.27213 0.0696426 1.19919
lowerneck -12.7554 0.612044 -1.59863
upperneck 32.438 1.12539 0.636819
head 12.9237 0.385001 0.69124
rclavicle -3.27995e-015 -8.44835e-015
rhumerus -26.386 -21.8126 -78.1314
rradius 22.3545
rwrist 38.2382
rhand -16.8957 -26.3848
rfingers 7.12502
rthumb 9.33596 -56.158
lclavicle -3.27995e-015 -8.44835e-015
lhumerus -22.1215 6.69129 84.424
lradius 15.5758
lwrist -2.1383
lhand -24.2531 -6.39709
lfingers 7.12502
lthumb 2.23292 23.571
rfemur -13.4696 -1.71875 20.2863
rtibia 20.7009
rfoot -13.4066 0.755958
rtoes 13.5306
lfemur -11.0188 6.42758 -17.4099
ltibia 17.436
lfoot -10.1032 4.93944
ltoes -8.15265
673
root 0.419888 17.7126 11.0429 6.43322 -0.632629 -1.47264
lowerback -3.63561 0.180562 -0.0728512
upperback 3.12461 0.192559 1.10036
thorax 5.26882 0.0700345 1.19653
lowerneck -12.7369 0.608622 -1.60372
upperneck 32.5039 1.12 0.642179
head 12.9475 0.382149 0.693855
rclavicle -7.45443e-016 -1.26228e-014
rhumerus -26.404 -21.8119 -78.0611
rradius 22.3749
rwrist 38.2168
rhand -16.8973 -26.4008
rfingers 7.12502
rthumb 9.33439 -56.1741
lclavicle -7.45443e-016 -1.26228e-014
lhumerus -22.1724 6.80641 84.3573
lradius 15.549
lwrist -2.20267
lhand -24.1667 -6.28262
lfingers 7.12502
lthumb 2.31633 23.6845
rfemur -13.4811 -1.71638 20.2902
rtibia 20.7053
rfoot -13.4066 0.753924
rtoes 13.5297
lfemur -11.0386 6.42707 -17.4085
ltibia 17.4595
lfoot -10.1106 4.9504
ltoes -8.15636
674
root 0.421362 17.7125 11.0441 6.4427 -0.639268 -1.48236
lowerback -3.61709 0.181499 -0.0632755
upperback 3.12718 0.193156 1.10354
thorax 5.26094 0.0706451 1.19441
lowerneck -12.7185 0.603707 -1.6098
upperneck 32.5771 1.11284 0.647187
head 12.9746 0.378288 0.69632
rclavicle -2.41026e-015 -6.95746e-015
rhumerus -26.4221 -21.7815 -77.9986
rradius 22.4073
rwrist 38.1677
rhand -16.9026 -26.4318
rfingers 7.12502
rthumb 9.32928 -56.2054
lclavicle -2.41026e-015 -6.95746e-015
lhumerus -22.2311 6.90297 84.3016
lradius 15.5269
lwrist -2.24915
lhand -24.0774 -6.15412
lfingers 7.12502
lthumb 2.40263 23.8121
rfemur -13.4907 -1.71237 20.2965
rtibia 20.7095
rfoot -13.4061 0.75336
rtoes 13.5378
lfemur -11.055 6.42771 -17.4043
ltibia 17.4812
lfoot -10.1181 4.96251
ltoes -8.15815
675
root 0.422811 17.7125 11.0453 6.45262 -0.647746 -1.48967
lowerback -3.5975 0.183365 -0.0557767
upperback 3.12633 0.195207 1.10576
thorax 5.24883 0.0719433 1.19254
lowerneck -12.696 0.59894 -1.61766
upperneck 32.6527 1.10574 0.653968
head 13.0018 0.374456 0.699787
rclavicle 1.66482e-015 -1.98785e-016
rhumerus -26.4406 -21.7337 -77.9432
rradius 22.4515
rwrist 38.0963
rhand -16.909 -26.4676
rfingers 7.12502
rthumb 9.3231 -56.2414
lclavicle 1.66482e-015 -1.98785e-016
lhumerus -22.2947 6.99087 84.2527
lradius 15.506
lwrist -2.29362
lhand -23.9998 -6.02973
lfingers 7.12502
lthumb 2.47755 23.9356
rfemur -13.5007 -1.70439 20.3001
rtibia 20.7132
rfoot -13.4049 0.750614
rtoes 13.538
lfemur -11.0706 6.42739 -17.4025
ltibia 17.5011
lfoot -10.1254 4.97615
ltoes -8.15109
